<?xml version="1.0" ?><!DOCTYPE svg  PUBLIC '-//W3C//DTD SVG 1.1//EN'  'http://www.w3.org/Graphics/SVG/1.1/DTD/svg11.dtd'><svg height="512px" style="shape-rendering:geometricPrecision; text-rendering:geometricPrecision; image-rendering:optimizeQuality; fill-rule:evenodd; clip-rule:evenodd" version="1.1" viewBox="0 0 512 512" width="512px" xml:space="preserve" xmlns="http://www.w3.org/2000/svg" xmlns:xlink="http://www.w3.org/1999/xlink" xmlns:xodm="http://www.corel.com/coreldraw/odm/2003"><defs><style type="text/css">
   <![CDATA[
    .fil0 {fill:black}
   ]]>
  </style></defs><g id="Layer_x0020_1"><path class="fil0" d="M256 0c141.39,0 256,114.61 256,256 0,141.39 -114.61,256 -256,256 -141.39,0 -256,-114.61 -256,-256 0,-141.39 114.61,-256 256,-256zm123.09 177.13c-7.88,3.57 -16.55,5.73 -25.06,7.16 7.49,-1.26 18.57,-19.13 20.71,-26.14 0.65,-1.28 -0.28,-1.73 -1.38,-1.19 -9.49,5.09 -19.31,8.78 -29.76,11.39 -1.96,0.49 -3.13,-1.95 -4.65,-3.21 -37.09,-31.55 -92.28,0.09 -85.07,48.97 0.16,1.2 0.05,1.36 -1.03,1.2 -40.87,-6.09 -74.76,-20.71 -102.26,-52.06 -1.2,-1.36 -1.85,-1.36 -2.82,0.11 -14.48,21.7 -4.03,51.87 15.12,66.8 -0.81,0.16 -10.82,-0.92 -19.73,-5.53 -1.2,-0.76 -1.8,-0.32 -1.9,1.03 -1.21,21.24 18.14,46.06 39.2,49.67 -3.95,0.86 -8.02,1.49 -19.36,0.6 -1.41,-0.27 -1.95,0.43 -1.41,1.79 8.52,23.21 26.9,30.12 40.67,34.05 1.84,0.32 3.69,0.32 5.54,0.76 -10.06,14.95 -53.55,22.09 -70.28,20.44 -1.16,-0.17 -5.52,-0.78 -2.71,1.52 99.36,65.51 223.11,-4.6 223.11,-129.21 0,-1.61 1.9,-2.49 3.03,-3.34 5.17,-3.89 20.97,-18.14 20.97,-24.81 0,-0.66 0.08,-0.45 -0.93,0z"/></g></svg>