<?xml version="1.0" ?><!DOCTYPE svg  PUBLIC '-//W3C//DTD SVG 1.1//EN'  'http://www.w3.org/Graphics/SVG/1.1/DTD/svg11.dtd'><svg height="512px" style="shape-rendering:geometricPrecision; text-rendering:geometricPrecision; image-rendering:optimizeQuality; fill-rule:evenodd; clip-rule:evenodd" version="1.1" viewBox="0 0 512 512" width="512px" xml:space="preserve" xmlns="http://www.w3.org/2000/svg" xmlns:xlink="http://www.w3.org/1999/xlink" xmlns:xodm="http://www.corel.com/coreldraw/odm/2003"><defs><style type="text/css">
   <![CDATA[
    .fil0 {fill:black}
   ]]>
  </style></defs><g id="Layer_x0020_1"><path class="fil0" d="M256 0c141.39,0 256,114.61 256,256 0,141.39 -114.61,256 -256,256 -141.39,0 -256,-114.61 -256,-256 0,-141.39 114.61,-256 256,-256zm36.09 259.35l-56.53 31c-2.45,1.33 -4.66,-0.45 -4.66,-3.24l0 -63.64c0,-2.83 2.28,-4.61 4.74,-3.21l56.91 32.64c2.52,1.43 2.09,5.07 -0.46,6.45zm89.43 -36.56c0,-30.19 -24.47,-54.65 -54.65,-54.65l-141.74 0c-30.18,0 -54.65,24.46 -54.65,54.65l0 66.42c0,30.19 24.47,54.65 54.65,54.65l141.75 0c30.17,0 54.64,-24.46 54.64,-54.65l0 -66.42z"/></g></svg>